Coordinates
version=1
nRows=27
nColumns=12
inDegrees=yes

Units are S.I. units (second, meters, Newtons, ...)
Angles are in degrees

endheader
time	SC_y	SC_z	SC_x	AC_y	AC_z	AC_x	GH_y	GH_z	GH_yy	EL_x	PS_y
       0.0              -16.72          7.276          75.66          58.02         -18.43         -10.84         -103.8          42.83         -81.84           83.4          89.52
  0.005605              -16.72          7.275          75.66          58.01         -18.43         -10.84         -103.7          42.82         -81.83           83.4          89.51
   0.01121              -16.73          7.273          75.66          58.01         -18.42         -10.83         -103.7          42.82         -81.82           83.4          89.51
   0.01682              -16.73          7.271          75.65          58.01         -18.42         -10.83         -103.7          42.81         -81.81          83.41           89.5
   0.02242              -16.73          7.269          75.65          58.01         -18.42         -10.82         -103.6           42.8          -81.8          83.41           89.5
   0.02803              -16.73          7.267          75.64           58.0         -18.41         -10.82         -103.6          42.79         -81.79          83.42          89.49
   0.03363              -16.74          7.265          75.64           58.0         -18.41         -10.82         -103.6          42.78         -81.78          83.42          89.48
   0.03924              -16.74          7.263          75.63           58.0          -18.4         -10.81         -103.5          42.77         -81.77          83.43          89.47
   0.04484              -16.74           7.26          75.62          57.99          -18.4         -10.81         -103.5          42.76         -81.75          83.43          89.47
   0.05045              -16.74          7.258          75.62          57.99         -18.39          -10.8         -103.4          42.75         -81.74          83.44          89.46
   0.05605              -16.75          7.255          75.61          57.99         -18.39         -10.79         -103.4          42.73         -81.72          83.45          89.45
   0.06166              -16.75          7.252           75.6          57.98         -18.38         -10.79         -103.3          42.72         -81.71          83.46          89.44
   0.06726              -16.75          7.248          75.59          57.98         -18.38         -10.78         -103.2           42.7         -81.69          83.46          89.43
   0.07287              -16.76          7.245          75.59          57.97         -18.37         -10.77         -103.2          42.69         -81.67          83.47          89.42
   0.07848              -16.76          7.241          75.58          57.97         -18.36         -10.77         -103.1          42.67         -81.65          83.48          89.41
   0.08408              -16.76          7.237          75.57          57.96         -18.35         -10.76         -103.0          42.65         -81.63          83.49          89.39
   0.08969              -16.77          7.232          75.55          57.96         -18.34         -10.75         -102.9          42.63         -81.61           83.5          89.38
   0.09529              -16.78          7.227          75.54          57.95         -18.33         -10.74         -102.8          42.61         -81.58          83.52          89.36
    0.1009              -16.78          7.222          75.53          57.94         -18.32         -10.72         -102.7          42.58         -81.55          83.53          89.35
    0.1065              -16.79          7.216          75.51          57.93         -18.31         -10.71         -102.6          42.56         -81.52          83.54          89.33
    0.1121              -16.79          7.209           75.5          57.92          -18.3          -10.7         -102.5          42.53         -81.49          83.56          89.31
    0.1177               -16.8          7.202          75.48          57.91         -18.29         -10.68         -102.4          42.49         -81.45          83.58          89.28
    0.1233              -16.81          7.194          75.46           57.9         -18.27         -10.67         -102.2          42.46         -81.41           83.6          89.26
    0.1289              -16.82          7.185          75.44          57.89         -18.25         -10.65         -102.1          42.42         -81.36          83.62          89.23
    0.1345              -16.83          7.176          75.42          57.88         -18.23         -10.63         -101.9          42.37         -81.31          83.64           89.2
    0.1401              -16.84          7.165          75.39          57.86         -18.21          -10.6         -101.7          42.32         -81.26          83.67          89.16
    0.1457              -16.85          7.152          75.36          57.85         -18.19         -10.58         -101.4          42.27         -81.19           83.7          89.13
